# xmcd CD database file
#
# Track frame offsets:
#	150
#	4605
#	23423
#	49899
#	72943
#	89716
#	100272
#	124012
#	142151
#	161857
#
# Disc length: 2461 seconds
#
# Revision: 0
# Processed by: cddbd v1.5.1PL2 Copyright (c) Steve Scherf et al.
# Submitted via: CDex 1.51
#
DISCID=86099b0a
DTITLE=風絃流し - 春風ウキウキ
DYEAR=2005
DGENRE=Ethnic
TTITLE0=スプラッシュ・バンバン
TTITLE1=開花宣言
TTITLE2=風の大地
TTITLE3=夏草の路 月あかり
TTITLE4=ワンダーランド
TTITLE5=サークルダンス
TTITLE6=線香花火
TTITLE7=生きろ！
TTITLE8=風絃流し
TTITLE9=春風ウキウキ
EXTD=YEAR: 2005
EXTT0=
EXTT1=
EXTT2=
EXTT3=
EXTT4=
EXTT5=
EXTT6=
EXTT7=
EXTT8=
EXTT9=
PLAYORDER=
